# Blender v2.79 (sub 0) OBJ File: 'scene.blend'
# www.blender.org
o Cube
v 0.999450 1.978443 0.000696
v 0.999450 -0.021557 0.000696
v -1.000550 -0.021556 0.000696
v -1.000550 1.978444 0.000696
v 0.999450 1.978443 2.000696
v 0.999449 -0.021557 2.000696
v -1.000551 -0.021556 2.000696
v -1.000550 1.978443 2.000696
v 0.999450 0.978443 0.000696
v -0.000550 1.978444 0.000696
v 0.999450 1.978443 1.000696
v -0.000550 -0.021556 0.000696
v 0.999450 -0.021557 1.000696
v -1.000550 -0.021556 1.000696
v 0.999450 0.978443 2.000696
v -0.000550 1.978443 2.000696
v -0.000551 -0.021557 2.000696
v -1.000550 0.978444 2.000696
v -0.000550 -0.021557 1.000696
v 0.999450 0.978443 1.000696
v -0.000550 0.978443 2.000696
v -0.000550 -0.021556 0.000696
v -1.000550 -0.021556 0.000696
v 0.999450 -0.021557 0.000696
v -1.000550 -0.021556 0.000696
v -0.000550 -0.021556 0.000696
v -1.000550 -0.021556 0.000696
v 0.999450 -0.021557 0.000696
v -0.000550 -0.021556 0.000696
v -1.000550 -0.021556 0.000696
v 0.999450 -0.021557 0.000696
v -0.000550 -3.032181 0.000696
v -1.000550 -3.032181 0.000696
v 0.999450 -3.032181 0.000696
v 0.999450 1.978443 0.000696
v 0.999450 0.978443 0.000696
v 0.999450 -0.021557 0.000696
v 0.999450 -3.032181 0.000696
v 0.999450 -3.032181 0.000696
v 0.999450 1.978443 0.000696
v 0.999450 -0.021557 0.000696
v 0.999450 0.978443 0.000696
v 0.999450 -0.021557 0.000696
v 0.999450 -3.032181 0.000696
v 3.999448 1.978443 0.000696
v 3.999448 -0.021557 0.000696
v 3.999448 0.978443 0.000696
v 3.999448 -0.021557 0.000696
v 3.999448 -3.032181 0.000696
v 0.999450 1.978443 0.000696
v -1.000550 1.978444 0.000696
v -0.000550 1.978444 0.000696
v 0.999450 1.978443 0.000696
v 3.999448 1.978443 0.000696
v 3.999448 -0.021557 0.000696
v 3.999448 0.978443 0.000696
v 3.999448 -0.021557 0.000696
v 3.999448 -3.032181 0.000696
v 0.999450 1.978443 0.000696
v -1.000550 1.978444 0.000696
v -0.000550 1.978444 0.000696
v 0.999450 1.978443 0.000696
v 3.999448 1.978443 0.000696
v 3.999448 -0.021557 0.000696
v 3.999448 0.978443 0.000696
v 3.999448 -0.021557 0.000696
v 3.999448 -3.032181 0.000696
v 0.999450 1.978443 0.000696
v -1.000550 1.978444 0.000696
v -0.000550 1.978444 0.000696
v 0.999450 1.978443 0.000696
v 3.999448 1.978443 0.000696
v 3.999448 -0.021557 0.000696
v 3.999448 0.978443 0.000696
v 3.999448 -0.021557 0.000696
v 3.999448 -3.032181 0.000696
v -1.000550 -0.021556 4.003242
v -1.000550 -3.032181 4.003241
v -1.000551 -0.021556 4.001096
v -1.000550 1.978443 4.001096
v -1.000550 0.978444 4.001096
v 0.999450 1.978443 4.000695
v -1.000550 1.978443 4.000695
v -0.000550 1.978443 4.000695
v 0.999450 1.978443 3.988930
v 3.999448 1.978443 3.988930
v -0.000551 -0.021557 2.000696
v -1.000551 -0.021556 2.000696
v -1.000550 0.978444 2.000696
v -0.000550 0.978443 2.000696
vt 0.889020 0.222241
vt 0.778040 0.222241
vt 0.778040 0.222241
vt 0.889020 0.222241
vt 0.778040 0.111120
vt 0.667060 0.111120
vt 0.667060 0.000000
vt 0.778040 0.000000
vt 0.778040 0.333361
vt 0.889020 0.333361
vt 0.778040 0.444481
vt 0.889020 0.444481
vt 0.889020 0.444481
vt 0.667060 0.444481
vt 0.667060 0.333361
vt 0.667060 0.222241
vt 0.889020 0.111120
vt 0.889020 0.000000
vt 0.889020 0.222241
vt 0.778040 0.222241
vt 0.667060 0.222241
vt 0.778040 0.444481
vt 0.778040 0.555601
vt 0.667060 0.555601
vt 0.667060 0.444481
vt 0.889020 0.444481
vt 0.889020 0.555601
vt 0.889020 0.666722
vt 0.778040 0.666722
vt 0.000000 0.000000
vt 0.000000 0.000000
vt 0.000000 0.000000
vt 0.000000 0.000000
vt 0.000000 0.000000
vt 0.000000 0.000000
vt 0.000000 0.000000
vt 0.000000 0.000000
vt 0.000000 0.000000
vt 0.000000 0.000000
vt 0.000000 0.000000
vt 0.000000 0.000000
vt 0.332940 0.779305
vt 0.221960 0.779305
vt 0.221960 0.444764
vt 0.332940 0.444764
vt 0.889020 0.000000
vt 0.889020 0.334541
vt 1.000000 0.334541
vt 1.000000 0.000000
vt 0.000000 0.000000
vt 0.000000 0.000000
vt 0.000000 0.000000
vt 0.000000 0.000000
vt 0.000000 0.000000
vt 0.000000 0.000000
vt 0.000000 0.000000
vt 0.000000 0.000000
vt 0.667060 0.443174
vt 0.667059 0.777715
vt 0.334119 0.777715
vt 0.334119 0.443174
vt 0.110980 0.778125
vt 0.110980 0.444764
vt 0.000000 0.444764
vt 0.000000 0.778125
vt 0.221960 0.778125
vt 0.221960 0.444764
vt 0.000000 0.000000
vt 0.000000 0.000000
vt 0.000000 0.000000
vt 0.000000 0.000000
vt 0.000000 0.000000
vt 0.000000 0.000000
vt 0.000000 0.000000
vt 0.000000 0.000000
vt 0.000000 0.000000
vt 0.000000 0.000000
vt 0.000000 0.000000
vt 0.000000 0.000000
vt 0.000000 0.000000
vt 0.000000 0.000000
vt 0.000000 0.000000
vt 0.000000 0.000000
vt 0.000000 0.000000
vt 0.000000 0.000000
vt 0.000000 0.000000
vt 0.000000 0.000000
vt 0.000000 0.000000
vt 0.000000 0.000000
vt 0.000000 0.000000
vt 0.000000 0.000000
vt 0.000000 0.000000
vt 0.000000 0.000000
vt 0.000000 0.000000
vt 0.000000 0.000000
vt 0.000000 0.000000
vt 0.000000 0.000000
vt 0.000000 0.000000
vt 0.000000 0.000000
vt 0.000000 0.000000
vt 0.000000 0.000000
vt 0.334119 0.444764
vt 0.334119 0.000000
vt 0.000000 0.000000
vt 0.000000 0.444764
vt 0.445100 0.777715
vt 0.445100 1.000000
vt 0.556080 1.000000
vt 0.556080 0.777715
vt 0.334119 0.777715
vt 0.445100 0.777715
vt 0.445100 1.000000
vt 0.334119 1.000000
vt 0.778040 0.888962
vt 0.667060 0.888962
vt 0.667060 0.666722
vt 0.778040 0.666722
vt 0.889020 0.888962
vt 0.889020 0.666722
vt 0.334119 0.000000
vt 0.334119 0.443174
vt 0.667060 0.443174
vt 0.667059 0.000000
vt 0.778040 0.555601
vt 0.778040 0.666722
vt 0.667060 0.666722
vt 0.667060 0.555601
vt 0.556080 0.777715
vt 0.445100 0.777715
vn 0.0000 0.0000 1.0000
vn 1.0000 -0.0000 0.0000
vn -0.0000 -1.0000 -0.0000
s off
f 7/1/1 17/2/1 87/3/1 88/4/1
f 20/5/2 15/6/2 6/7/2 13/8/2
f 19/9/3 17/2/3 7/1/3 14/10/3
f 12/11/3 19/9/3 14/10/3 25/12/3 3/13/3
f 2/14/3 13/15/3 19/9/3 12/11/3
f 13/15/3 6/16/3 17/2/3 19/9/3
f 9/17/2 20/5/2 13/8/2 2/18/2
f 1/19/2 11/20/2 20/5/2 9/17/2
f 11/20/2 5/21/2 15/6/2 20/5/2
f 15/22/1 21/23/1 17/24/1 6/25/1
f 5/26/1 16/27/1 21/23/1 15/22/1
f 16/27/1 8/28/1 18/29/1 21/23/1
f 2/30/1 12/31/1 22/32/1 24/33/1
f 3/34/1 12/31/1 22/32/1 23/35/1
f 24/33/1 22/32/1 26/36/1 28/37/1
f 23/35/1 22/32/1 26/36/1 27/38/1
f 28/37/1 26/36/1 29/39/1 31/40/1
f 27/38/1 26/36/1 29/39/1 30/41/1
f 31/42/1 29/43/1 32/44/1 34/45/1
f 30/46/1 33/47/1 32/48/1 29/49/1
f 31/40/1 34/50/1 44/51/1 43/52/1
f 9/53/1 1/54/1 40/55/1 42/56/1
f 2/30/1 9/53/1 42/56/1 41/57/1
f 43/58/1 44/59/1 49/60/1 48/61/1
f 42/62/1 47/63/1 45/64/1 40/65/1
f 41/66/1 46/67/1 47/63/1 42/62/1
f 1/54/1 10/68/1 52/69/1 50/70/1
f 45/71/1 40/55/1 53/72/1 54/73/1
f 48/74/1 49/75/1 58/76/1 57/77/1
f 46/78/1 47/79/1 56/80/1 55/81/1
f 10/68/1 4/82/1 51/83/1 52/69/1
f 47/79/1 45/71/1 54/73/1 56/80/1
f 55/81/1 56/80/1 65/84/1 64/85/1
f 52/69/1 51/83/1 60/86/1 61/87/1
f 54/73/1 53/72/1 62/88/1 63/89/1
f 56/80/1 54/73/1 63/89/1 65/84/1
f 50/70/1 52/69/1 61/87/1 59/90/1
f 57/77/1 58/76/1 67/91/1 66/92/1
f 63/89/1 62/88/1 71/93/1 72/94/1
f 65/84/1 63/89/1 72/94/1 74/95/1
f 59/90/1 61/87/1 70/96/1 68/97/1
f 66/92/1 67/91/1 76/98/1 75/99/1
f 64/85/1 65/84/1 74/95/1 73/100/1
f 61/87/1 60/86/1 69/101/1 70/96/1
f 30/102/2 77/103/2 78/104/2 33/105/2
f 18/106/2 81/107/2 79/108/2 7/109/2
f 18/110/2 8/111/2 80/112/2 81/113/2
f 16/114/3 5/115/3 82/116/3 84/117/3
f 8/118/3 16/114/3 84/117/3 83/119/3
f 72/120/3 86/121/3 85/122/3 71/123/3
f 90/124/1 89/125/1 88/126/1 87/127/1
f 18/106/1 7/109/1 88/128/1 89/129/1
f 17/24/1 21/23/1 90/124/1 87/127/1
f 21/23/1 18/29/1 89/125/1 90/124/1
l 1 35
l 9 36
l 31 37
l 34 38
l 38 39
